<svg width="46" height="16" viewBox="0 0 46 16" fill="none" xmlns="http://www.w3.org/2000/svg">
<g clip-path="url(#clip0_819_107)">
<path d="M2.03101 4.7085L1.27451 4.27C1.25171 4.25684 1.22584 4.24991 1.19951 4.24991C1.17318 4.24991 1.14731 4.25684 1.12451 4.27L0.368011 4.7085C0.345174 4.72157 0.326176 4.74042 0.312924 4.76315C0.299672 4.78588 0.292632 4.81169 0.292511 4.83801L0.292511 11.161C0.292531 11.1872 0.29942 11.213 0.312491 11.2357C0.325563 11.2584 0.34436 11.2773 0.367011 11.2905L1.12351 11.729C1.14631 11.7422 1.17218 11.7491 1.19851 11.7491C1.22484 11.7491 1.25071 11.7422 1.27351 11.729L2.03001 11.2905C2.05266 11.2773 2.07146 11.2584 2.08453 11.2357C2.0976 11.213 2.10449 11.1872 2.10451 11.161V4.83801C2.10449 4.81179 2.0976 4.78604 2.08453 4.76332C2.07146 4.7406 2.05266 4.7217 2.03001 4.7085" fill="#ED2227"/>
<path d="M16.4225 4.7085L15.6655 4.27C15.6427 4.25684 15.6168 4.24991 15.5905 4.24991C15.5642 4.24991 15.5383 4.25684 15.5155 4.27L14.759 4.7085C14.7363 4.7217 14.7175 4.7406 14.7045 4.76332C14.6914 4.78604 14.6845 4.81179 14.6845 4.838V8.228L12.08 4.818L12.027 4.7475C12.0147 4.73199 11.9994 4.71907 11.982 4.7095L11.9555 4.6935H11.952L11.226 4.2725C11.2032 4.25934 11.1773 4.25241 11.151 4.25241C11.1247 4.25241 11.0988 4.25934 11.076 4.2725L10.3195 4.711C10.2968 4.7242 10.278 4.7431 10.265 4.76582C10.2519 4.78854 10.245 4.81429 10.245 4.8405V11.1635C10.245 11.1897 10.2519 11.2155 10.265 11.2382C10.278 11.2609 10.2968 11.2798 10.3195 11.293L11.076 11.7315C11.0988 11.7447 11.1247 11.7516 11.151 11.7516C11.1773 11.7516 11.2032 11.7447 11.226 11.7315L11.9825 11.293C12.0051 11.2798 12.0239 11.2609 12.037 11.2382C12.0501 11.2155 12.057 11.1897 12.057 11.1635V7.7765L14.7275 11.273H14.732C14.7406 11.2815 14.7501 11.2888 14.7605 11.295L15.517 11.7335C15.5398 11.7467 15.5657 11.7536 15.592 11.7536C15.6183 11.7536 15.6442 11.7467 15.667 11.7335L16.424 11.295C16.4466 11.2818 16.4654 11.2629 16.4785 11.2402C16.4916 11.2175 16.4985 11.1917 16.4985 11.1655V4.838C16.4985 4.81179 16.4916 4.78604 16.4785 4.76332C16.4654 4.7406 16.4466 4.7217 16.424 4.7085" fill="#ED2227"/>
<path d="M7.52245 8.53806C7.52245 8.98534 7.34477 9.41431 7.02849 9.73059C6.71221 10.0469 6.28324 10.2246 5.83595 10.2246H4.82245V5.77456H5.83695C6.28406 5.77482 6.71277 5.95263 7.02884 6.26888C7.3449 6.58513 7.52245 7.01394 7.52245 7.46106V8.53806ZM6.33695 4.24956H3.91595C3.88963 4.24953 3.86376 4.25643 3.84095 4.26956L3.08445 4.70806C3.0618 4.72125 3.043 4.74015 3.02993 4.76287C3.01686 4.7856 3.00997 4.81135 3.00995 4.83756V11.1606C3.00997 11.1868 3.01686 11.2125 3.02993 11.2352C3.043 11.258 3.0618 11.2769 3.08445 11.2901L3.84095 11.7286C3.86644 11.7431 3.89564 11.7499 3.92495 11.7481H6.33795C7.1336 11.7481 7.89666 11.432 8.45927 10.8694C9.02188 10.3068 9.33795 9.54371 9.33795 8.74806V7.24756C9.33795 6.45191 9.02188 5.68885 8.45927 5.12624C7.89666 4.56363 7.1336 4.24756 6.33795 4.24756" fill="#ED2227"/>
<path d="M22.0606 5.85451H20.1221V4.83652H25.1221V5.85451H23.1841V11.1595H22.0591L22.0606 5.85451Z" fill="#14171A"/>
<path fill-rule="evenodd" clip-rule="evenodd" d="M26.0385 11.1595H27.1635V4.83652H26.0385V11.1595Z" fill="#14171A"/>
<path d="M28.314 4.83652H30.0285L31.7165 9.26602L33.422 4.83652H35.1185V11.16H34.047V5.91002H34.029L32.109 11.16H31.323L29.403 5.91002H29.385V11.16H28.313L28.314 4.83652Z" fill="#14171A"/>
<path d="M36.296 4.83652H40.4844V5.85451H37.421V7.40851H40.3239V8.42652H37.421V10.141H40.6449V11.1595H36.295L36.296 4.83652Z" fill="#14171A"/>
<path d="M44.8509 6.19405C44.7334 6.02258 44.567 5.89037 44.3734 5.81455C44.1734 5.73402 43.9596 5.69309 43.7439 5.69405C43.6161 5.69378 43.4887 5.70888 43.3644 5.73905C43.2468 5.76712 43.1349 5.81552 43.0339 5.88205C42.9361 5.94687 42.8551 6.03391 42.7974 6.13605C42.7354 6.24968 42.7046 6.37766 42.7079 6.50705C42.7025 6.60088 42.72 6.69462 42.759 6.78017C42.7979 6.86572 42.8571 6.9405 42.9314 6.99805C43.1008 7.1225 43.2872 7.22185 43.4849 7.29305C43.7046 7.37638 43.9457 7.45688 44.2084 7.53455C44.4629 7.60882 44.7062 7.71695 44.9319 7.85605C45.1538 7.99512 45.3427 8.18095 45.4854 8.40055C45.6463 8.67315 45.724 8.98686 45.7089 9.30305C45.716 9.60978 45.6516 9.91395 45.5209 10.1915C45.4024 10.4366 45.2301 10.6518 45.0169 10.821C44.7973 10.9917 44.5472 11.119 44.2799 11.196C43.9928 11.2802 43.6951 11.3221 43.3959 11.3205C43.0094 11.3218 42.6256 11.2554 42.2619 11.1245C41.8959 10.9918 41.572 10.7636 41.3239 10.4635L42.1739 9.64205C42.3089 9.84821 42.4951 10.0157 42.7144 10.128C42.9333 10.2433 43.177 10.3032 43.4244 10.3025C43.5572 10.3024 43.6894 10.2844 43.8174 10.249C43.9443 10.2153 44.0649 10.1611 44.1744 10.0885C44.2804 10.0185 44.3691 9.9253 44.4339 9.81605C44.5013 9.70106 44.5359 9.56981 44.5339 9.43655C44.5399 9.33613 44.523 9.23566 44.4844 9.14278C44.4457 9.0499 44.3864 8.96705 44.3109 8.90055C44.1448 8.76553 43.9576 8.65861 43.7569 8.58405C43.5366 8.49738 43.2956 8.41538 43.0339 8.33805C42.78 8.26426 42.5368 8.15769 42.3104 8.02105C42.0883 7.88569 41.899 7.7026 41.7564 7.48505C41.5954 7.21435 41.5178 6.90214 41.5334 6.58755C41.5251 6.29164 41.594 5.99868 41.7334 5.73755C41.8639 5.5035 42.0439 5.30078 42.2609 5.14355C42.486 4.98179 42.7386 4.86218 43.0064 4.79055C43.2855 4.71335 43.5738 4.67432 43.8634 4.67455C44.1923 4.67344 44.5193 4.72406 44.8324 4.82455C45.1471 4.92722 45.4352 5.09793 45.6764 5.32455L44.8509 6.19405Z" fill="#14171A"/>
</g>
<defs>
<clipPath id="clip0_819_107">
<rect width="45.415" height="16" fill="white" transform="translate(0.292511)"/>
</clipPath>
</defs>
</svg>
